<svg width="18" height="18" viewBox="0 0 18 18" fill="none" xmlns="http://www.w3.org/2000/svg">
<path fill-rule="evenodd" clip-rule="evenodd" d="M6.375 1.5C4.275 1.5 2.625 3.15 2.625 5.25C2.625 7.35 4.275 9 6.375 9C8.475 9 10.125 7.35 10.125 5.25C10.125 3.15 8.475 1.5 6.375 1.5ZM12.75 15.75V14.25C12.75 12.15 11.1 10.5 9 10.5H3.75C1.65 10.5 0 12.15 0 14.25V15.75C0 16.2 0.3 16.5 0.75 16.5C1.2 16.5 1.5 16.2 1.5 15.75V14.25C1.5 12.975 2.475 12 3.75 12H9C10.275 12 11.25 12.975 11.25 14.25V15.75C11.25 16.2 11.55 16.5 12 16.5C12.45 16.5 12.75 16.2 12.75 15.75ZM4.125 5.25C4.125 6.525 5.1 7.5 6.375 7.5C7.65 7.5 8.625 6.525 8.625 5.25C8.625 3.975 7.65 3 6.375 3C5.1 3 4.125 3.975 4.125 5.25ZM15.75 7.5H17.25C17.7 7.5 18 7.8 18 8.25C18 8.7 17.7 9 17.25 9H15.75V10.5C15.75 10.95 15.45 11.25 15 11.25C14.55 11.25 14.25 10.95 14.25 10.5V9H12.75C12.3 9 12 8.7 12 8.25C12 7.8 12.3 7.5 12.75 7.5H14.25V6C14.25 5.55 14.55 5.25 15 5.25C15.45 5.25 15.75 5.55 15.75 6V7.5Z" fill="#6D6767"/>
<mask id="mask0_0_869" style="mask-type:alpha" maskUnits="userSpaceOnUse" x="0" y="1" width="18" height="16">
<path fill-rule="evenodd" clip-rule="evenodd" d="M6.375 1.5C4.275 1.5 2.625 3.15 2.625 5.25C2.625 7.35 4.275 9 6.375 9C8.475 9 10.125 7.35 10.125 5.25C10.125 3.15 8.475 1.5 6.375 1.5ZM12.75 15.75V14.25C12.75 12.15 11.1 10.5 9 10.5H3.75C1.65 10.5 0 12.15 0 14.25V15.75C0 16.2 0.3 16.5 0.75 16.5C1.2 16.5 1.5 16.2 1.5 15.75V14.25C1.5 12.975 2.475 12 3.75 12H9C10.275 12 11.25 12.975 11.25 14.25V15.75C11.25 16.2 11.55 16.5 12 16.5C12.45 16.5 12.75 16.2 12.75 15.75ZM4.125 5.25C4.125 6.525 5.1 7.5 6.375 7.5C7.65 7.5 8.625 6.525 8.625 5.25C8.625 3.975 7.65 3 6.375 3C5.1 3 4.125 3.975 4.125 5.25ZM15.75 7.5H17.25C17.7 7.5 18 7.8 18 8.25C18 8.7 17.7 9 17.25 9H15.75V10.5C15.75 10.95 15.45 11.25 15 11.25C14.55 11.25 14.25 10.95 14.25 10.5V9H12.75C12.3 9 12 8.7 12 8.25C12 7.8 12.3 7.5 12.75 7.5H14.25V6C14.25 5.55 14.55 5.25 15 5.25C15.45 5.25 15.75 5.55 15.75 6V7.5Z" fill="white"/>
</mask>
<g mask="url(#mask0_0_869)">
<rect width="18" height="18" fill="#B4B7BD"/>
</g>
</svg>
