<svg width="14" height="14" viewBox="0 0 14 14" fill="none" xmlns="http://www.w3.org/2000/svg">
<path fill-rule="evenodd" clip-rule="evenodd" d="M10.0334 9.21666L12.6584 11.8417C12.8917 12.075 12.8917 12.425 12.6584 12.6583C12.5417 12.775 12.3667 12.8333 12.25 12.8333C12.1334 12.8333 11.9584 12.775 11.8417 12.6583L9.21669 10.0333C8.34169 10.675 7.29169 11.0833 6.12502 11.0833C3.38335 11.0833 1.16669 8.86666 1.16669 6.12499C1.16669 3.38332 3.38335 1.16666 6.12502 1.16666C8.86669 1.16666 11.0834 3.38332 11.0834 6.12499C11.0834 7.29166 10.675 8.39999 10.0334 9.21666ZM6.12502 2.33332C4.02502 2.33332 2.33335 4.02499 2.33335 6.12499C2.33335 8.22499 4.02502 9.91666 6.12502 9.91666C7.17502 9.91666 8.10835 9.50832 8.80835 8.80832C9.50835 8.10832 9.91669 7.17499 9.91669 6.12499C9.91669 4.02499 8.22502 2.33332 6.12502 2.33332Z" fill="black"/>
<mask id="mask0_0_833" style="mask-type:alpha" maskUnits="userSpaceOnUse" x="1" y="1" width="12" height="12">
<path fill-rule="evenodd" clip-rule="evenodd" d="M10.0334 9.21666L12.6584 11.8417C12.8917 12.075 12.8917 12.425 12.6584 12.6583C12.5417 12.775 12.3667 12.8333 12.25 12.8333C12.1334 12.8333 11.9584 12.775 11.8417 12.6583L9.21669 10.0333C8.34169 10.675 7.29169 11.0833 6.12502 11.0833C3.38335 11.0833 1.16669 8.86666 1.16669 6.12499C1.16669 3.38332 3.38335 1.16666 6.12502 1.16666C8.86669 1.16666 11.0834 3.38332 11.0834 6.12499C11.0834 7.29166 10.675 8.39999 10.0334 9.21666ZM6.12502 2.33332C4.02502 2.33332 2.33335 4.02499 2.33335 6.12499C2.33335 8.22499 4.02502 9.91666 6.12502 9.91666C7.17502 9.91666 8.10835 9.50832 8.80835 8.80832C9.50835 8.10832 9.91669 7.17499 9.91669 6.12499C9.91669 4.02499 8.22502 2.33332 6.12502 2.33332Z" fill="white"/>
</mask>
<g mask="url(#mask0_0_833)">
<rect width="14" height="14" fill="#BABFC7"/>
</g>
</svg>
