<svg width="20" height="20" viewBox="0 0 20 20" fill="none" xmlns="http://www.w3.org/2000/svg">
<path fill-rule="evenodd" clip-rule="evenodd" d="M9.57267 1.52539C4.70664 1.52539 0.797852 5.43418 0.797852 10.3002C0.797852 15.1663 4.70664 19.075 9.57267 19.075C14.4387 19.075 18.3475 15.1663 18.3475 10.3002C18.3475 5.43418 14.4387 1.52539 9.57267 1.52539ZM9.57296 17.4799C5.5844 17.4799 2.39355 14.289 2.39355 10.3005C2.39355 6.31194 5.5844 3.12109 9.57296 3.12109C13.5615 3.12109 16.7524 6.31194 16.7524 10.3005C16.7524 14.289 13.5615 17.4799 9.57296 17.4799ZM12.5246 13.2513C12.8437 12.9322 12.8437 12.4536 12.5246 12.1345L10.3708 9.98071V5.51353C10.3708 5.0349 10.0517 4.71582 9.5731 4.71582C9.09447 4.71582 8.77539 5.0349 8.77539 5.51353V10.2998C8.77539 10.5391 8.85516 10.6987 9.0147 10.8582L11.4078 13.2513C11.5674 13.4109 11.7269 13.4906 11.9662 13.4906C12.2055 13.4906 12.3651 13.4109 12.5246 13.2513Z" fill="black"/>
<mask id="mask0_0_957" style="mask-type:alpha" maskUnits="userSpaceOnUse" x="0" y="1" width="19" height="19">
<path fill-rule="evenodd" clip-rule="evenodd" d="M9.57267 1.52539C4.70664 1.52539 0.797852 5.43418 0.797852 10.3002C0.797852 15.1663 4.70664 19.075 9.57267 19.075C14.4387 19.075 18.3475 15.1663 18.3475 10.3002C18.3475 5.43418 14.4387 1.52539 9.57267 1.52539ZM9.57296 17.4799C5.5844 17.4799 2.39355 14.289 2.39355 10.3005C2.39355 6.31194 5.5844 3.12109 9.57296 3.12109C13.5615 3.12109 16.7524 6.31194 16.7524 10.3005C16.7524 14.289 13.5615 17.4799 9.57296 17.4799ZM12.5246 13.2513C12.8437 12.9322 12.8437 12.4536 12.5246 12.1345L10.3708 9.98071V5.51353C10.3708 5.0349 10.0517 4.71582 9.5731 4.71582C9.09447 4.71582 8.77539 5.0349 8.77539 5.51353V10.2998C8.77539 10.5391 8.85516 10.6987 9.0147 10.8582L11.4078 13.2513C11.5674 13.4109 11.7269 13.4906 11.9662 13.4906C12.2055 13.4906 12.3651 13.4109 12.5246 13.2513Z" fill="white"/>
</mask>
<g mask="url(#mask0_0_957)">
<rect y="0.728516" width="19.1451" height="19.1451" fill="#FFB800"/>
</g>
</svg>
