<svg width="15" height="16" viewBox="0 0 15 16" fill="none" xmlns="http://www.w3.org/2000/svg">
<path d="M11.6574 6.7709L8.0703 10.358C7.95073 10.4776 7.83115 10.5374 7.6518 10.5374C7.47244 10.5374 7.35287 10.4776 7.2333 10.358L3.64615 6.7709C3.40701 6.53176 3.40701 6.17305 3.64615 5.9339C3.8853 5.69476 4.24401 5.69476 4.48315 5.9339L7.6518 9.10255L10.8204 5.9339C11.0596 5.69476 11.4183 5.69476 11.6574 5.9339C11.8966 6.17305 11.8966 6.53176 11.6574 6.7709Z" fill="black"/>
<mask id="mask0_0_610" style="mask-type:alpha" maskUnits="userSpaceOnUse" x="3" y="5" width="9" height="6">
<path d="M11.6574 6.7709L8.0703 10.358C7.95073 10.4776 7.83115 10.5374 7.6518 10.5374C7.47244 10.5374 7.35287 10.4776 7.2333 10.358L3.64615 6.7709C3.40701 6.53176 3.40701 6.17305 3.64615 5.9339C3.8853 5.69476 4.24401 5.69476 4.48315 5.9339L7.6518 9.10255L10.8204 5.9339C11.0596 5.69476 11.4183 5.69476 11.6574 5.9339C11.8966 6.17305 11.8966 6.53176 11.6574 6.7709Z" fill="white"/>
</mask>
<g mask="url(#mask0_0_610)">
<rect x="0.477539" y="0.97168" width="14.3486" height="14.3486" fill="#B9B9C3"/>
</g>
</svg>
